<svg width="64" height="64" viewBox="0 0 64 64" fill="none" xmlns="http://www.w3.org/2000/svg">
  <title>Sunrise Assistencial</title>
  <rect width="64" height="64" rx="14" fill="#0B4F8A"/>
  <path d="M32 10C41.1 10 49 15.4 52.6 23.1C49.1 20.6 44.8 19.1 40.2 19.1C28.4 19.1 18.9 28.6 18.9 40.4C18.9 45 20.4 49.3 22.9 52.8C15.2 49.2 9.8 41.3 9.8 32.2C9.8 19.9 19.7 10 32 10Z" fill="#FDBA22"/>
  <path d="M32 21.1C37.8 21.1 42.6 24.9 44.3 30.1C41.8 28.4 38.9 27.4 35.7 27.4C27.4 27.4 20.7 34.1 20.7 42.4C20.7 45.6 21.7 48.5 23.4 51C18.2 49.3 14.4 44.5 14.4 38.7C14.4 29 22.3 21.1 32 21.1Z" fill="#F47B20"/>
  <path d="M47.1 40.9C42.9 49.9 32.1 53.8 23.1 49.6C31.4 49.4 39.3 44.9 43.6 37.5C44.5 38.8 45.7 40 47.1 40.9Z" fill="#2AA7DF"/>
</svg>
