<svg width="520" height="120" viewBox="0 0 520 120" fill="none" xmlns="http://www.w3.org/2000/svg">
  <title>Sunrise Assistencial</title>
  <rect width="520" height="120" fill="none"/>
  <g>
    <circle cx="60" cy="60" r="44" fill="#0B4F8A"/>
    <path d="M60 23C75.6 23 89.1 32.2 95.3 45.4C89.3 41.1 82 38.6 74.1 38.6C53.9 38.6 37.6 54.9 37.6 75.1C37.6 83 40.1 90.3 44.4 96.3C31.2 90.1 22 76.6 22 61C22 40 39 23 60 23Z" fill="#FDBA22"/>
    <path d="M60 42C69.9 42 78.2 48.5 81 57.5C76.8 54.6 71.8 53 66.4 53C52.2 53 40.7 64.5 40.7 78.7C40.7 84.1 42.3 89.1 45.2 93.3C36.2 90.5 29.7 82.2 29.7 72.3C29.7 55.6 43.3 42 60 42Z" fill="#F47B20"/>
    <path d="M86 76C78.8 91.4 60.4 98.1 45 90.9C59.2 90.5 72.8 82.8 80.2 70.1C81.7 72.4 83.7 74.4 86 76Z" fill="#2AA7DF"/>
  </g>
  <text x="128" y="58" fill="#123047" font-family="Inter, Arial, Helvetica, sans-serif" font-size="38" font-weight="700" letter-spacing="0">
    Sunrise
  </text>
  <text x="128" y="91" fill="#2AA7DF" font-family="Inter, Arial, Helvetica, sans-serif" font-size="30" font-weight="600" letter-spacing="0">
    Assistencial
  </text>
</svg>
